<svg xmlns="http://www.w3.org/2000/svg" xmlns:xlink="http://www.w3.org/1999/xlink" version="1.1" x="0px" y="0px" viewBox="0 0 100 125" style="enable-background:new 0 0 100 100;" xml:space="preserve"><g><path d="M76.9,34.1c-0.7-0.8-2-0.9-2.8-0.2c-0.8,0.7-0.9,2-0.2,2.8L83.6,48H54c-1.1,0-2,0.9-2,2s0.9,2,2,2h29.6l-9.7,11.3   c-0.7,0.8-0.6,2.1,0.2,2.8c0.4,0.3,0.8,0.5,1.3,0.5c0.6,0,1.1-0.2,1.5-0.7l12.6-14.6c0.6-0.8,0.6-1.9,0-2.6L76.9,34.1z"/><path d="M40,81c12.6,0,23.9-7.6,28.7-19.2c0.4-1-0.1-2.2-1.1-2.6c-1-0.4-2.2,0.1-2.6,1.1C60.8,70.4,51,77,40,77   c-14.9,0-27-12.1-27-27s12.1-27,27-27c11,0,20.8,6.6,25,16.8c0.4,1,1.6,1.5,2.6,1.1c1-0.4,1.5-1.6,1.1-2.6C63.9,26.6,52.6,19,40,19   C22.9,19,9,32.9,9,50S22.9,81,40,81z"/></g><text x="0" y="115" fill="#000000" font-size="5px" font-weight="bold" font-family="'Helvetica Neue', Helvetica, Arial-Unicode, Arial, Sans-serif"></text><text x="0" y="120" fill="#000000" font-size="5px" font-weight="bold" font-family="'Helvetica Neue', Helvetica, Arial-Unicode, Arial, Sans-serif"></text></svg>
